<svg width="41" height="41" viewBox="0 0 41 41" fill="none" xmlns="http://www.w3.org/2000/svg">
<mask id="mask0_2_359" style="mask-type:alpha" maskUnits="userSpaceOnUse" x="0" y="0" width="41" height="41">
<circle cx="20.5" cy="20.5" r="20.5" fill="#F39C12"/>
</mask>
<g mask="url(#mask0_2_359)">
<path d="M20.5226 20.1149L30.9197 44.0354H10.1255L20.5226 20.1149Z" fill="#34495E"/>
<path d="M20.5228 20.3868L10.1257 -3.53366L30.9199 -3.53366L20.5228 20.3868Z" fill="#E74C3C"/>
<path d="M20.6587 20.2508L-3.26175 30.6479L-3.26175 9.85373L20.6587 20.2508Z" fill="#34495E"/>
<path d="M20.3867 20.2508L44.3072 9.85374L44.3072 30.6479L20.3867 20.2508Z" fill="#E74C3C"/>
<path d="M20.6587 20.2508L-3.26175 30.6479L-3.26175 9.85373L20.6587 20.2508Z" fill="#3498DB"/>
<path d="M20.3867 20.2508L44.3072 9.85374L44.3072 30.6479L20.3867 20.2508Z" fill="#2ECC71"/>
<path d="M20.6187 20.3469L-3.64744 10.7845L11.0563 -3.91922L20.6187 20.3469Z" fill="#E67E22"/>
<path d="M20.4267 20.1547L44.6928 29.7172L29.9891 44.4209L20.4267 20.1547Z" fill="#9B59B6"/>
<path d="M20.4268 20.347L29.9893 -3.91916L44.693 10.7845L20.4268 20.347Z" fill="#2980B9"/>
<path d="M20.6186 20.1547L11.0561 44.4209L-3.64758 29.7172L20.6186 20.1547Z" fill="#1ABC9C"/>
</g>
</svg>
